# xmcd CD database file
#
# Track frame offsets:
#	150
#	11807
#	39627
#	60650
#	76647
#	97177
#	120430
#	141675
#	161152
#	184320
#	210217
#	241925
#
# Disc length: 4440 seconds
#
# Revision: 0
# Processed by: cddbd v1.5.1PL2 Copyright (c) Steve Scherf et al.
# Submitted via: CDex 1.50beta8
#
DISCID=a211560c
DTITLE=Various Artist - Girl's Box -Best Hits Compilation Winter-
DYEAR=2005
DGENRE=JPop
TTITLE0=賛美歌第24番　父のかみよ(SweetS)
TTITLE1=Yourself(dream)
TTITLE2=Can't Hide(佐藤寛子)
TTITLE3=恋のマイアヒ(長谷部優+瀧本美織+岩崎舞)
TTITLE4=追憶のヒロイン(a☆girls=嘉陽愛子+PRETTY AMI)
TTITLE5=ゲレンデがとけるほど恋したい(PARADISE GO!! GO!!)
TTITLE6=恋人がサンタクロース(長澤奈央)
TTITLE7=冬のオペラグラス(星井七瀬)
TTITLE8=遠い街のどこかで…(斉藤未知)
TTITLE9=Giant X'mas -友情にリボン-(ロングリボンバージョン)
TTITLE10=希望の歌 '05 -Merry Christmas to you-
TTITLE11=CCCD
EXTD=YEAR: 2005
EXTT0=
EXTT1=
EXTT2=
EXTT3=
EXTT4=
EXTT5=
EXTT6=
EXTT7=
EXTT8=
EXTT9=
EXTT10=
EXTT11=
PLAYORDER=
